HIERARCHY
ROOT Pelvis
{
	OFFSET 0.000000 0.000000 0.000000
	CHANNELS 6 Xposition Yposition Zposition Xrotation Yrotation Zrotation
	JOINT LeftUpLeg_virtual
	{
		OFFSET 0.000000 0.000000 0.000000
		CHANNELS 3 Xrotation Yrotation Zrotation
		JOINT LeftUpLeg
		{
			OFFSET 18.735201 -5.666702 -4.541200
			CHANNELS 3 Xrotation Yrotation Zrotation
			JOINT LeftLeg
			{
				OFFSET -0.021200 -31.938179 0.493100
				CHANNELS 3 Xrotation Yrotation Zrotation
				JOINT LeftFoot
				{
					OFFSET 0.021200 -31.938179 -4.336299
					CHANNELS 3 Xrotation Yrotation Zrotation
					JOINT LeftToeBase
					{
						OFFSET 0.943001 -26.722000 15.023500
						CHANNELS 3 Xrotation Yrotation Zrotation
						End Site
						{
							OFFSET 0 0 0
						}
					}
				}
			}
		}
	}
	JOINT RightUpLeg_virtual
	{
		OFFSET 0.000000 0.000000 0.000000
		CHANNELS 3 Xrotation Yrotation Zrotation
		JOINT RightUpLeg
		{
			OFFSET -18.735201 -5.666702 -4.541200
			CHANNELS 3 Xrotation Yrotation Zrotation
			JOINT RightLeg
			{
				OFFSET 0.018946 -31.938133 0.493100
				CHANNELS 3 Xrotation Yrotation Zrotation
				JOINT RightFoot
				{
					OFFSET -0.018946 -31.938126 -4.336299
					CHANNELS 3 Xrotation Yrotation Zrotation
					JOINT RightToeBase
					{
						OFFSET -0.943001 -26.722004 15.023500
						CHANNELS 3 Xrotation Yrotation Zrotation
						End Site
						{
							OFFSET 0 0 0
						}
					}
				}
			}
		}
	}
	JOINT Hips_virtual
	{
		OFFSET 0.000000 0.000000 0.000000
		CHANNELS 3 Xrotation Yrotation Zrotation
		JOINT Hips
		{
			OFFSET -0.000000 -0.000000 -0.000000
			CHANNELS 3 Xrotation Yrotation Zrotation
			JOINT Spine
			{
				OFFSET 0.000000 10.199997 -0.299500
				CHANNELS 3 Xrotation Yrotation Zrotation
				JOINT Spine1
				{
					OFFSET 0.000000 11.900002 -1.516600
					CHANNELS 3 Xrotation Yrotation Zrotation
					JOINT Spine2
					{
						OFFSET 0.000000 13.600006 -2.842500
						CHANNELS 3 Xrotation Yrotation Zrotation
						JOINT Neck_virtual
						{
							OFFSET 0.000000 0.000000 0.000000
							CHANNELS 3 Xrotation Yrotation Zrotation
							JOINT Neck
							{
								OFFSET 0.000000 9.624100 -2.890100
								CHANNELS 3 Xrotation Yrotation Zrotation
								JOINT Head
								{
									OFFSET 0.000000 14.068802 -1.351900
									CHANNELS 3 Xrotation Yrotation Zrotation
									End Site
									{
										OFFSET 0 0 0
									}
								}
							}
						}
						JOINT LeftShoulder_virtual
						{
							OFFSET 0.000000 0.000000 0.000000
							CHANNELS 3 Xrotation Yrotation Zrotation
							JOINT LeftShoulder
							{
								OFFSET 15.263000 10.923401 -0.547700
								CHANNELS 3 Xrotation Yrotation Zrotation
								JOINT LeftArm
								{
									OFFSET 25.438599 -2.830597 -13.032500
									CHANNELS 3 Xrotation Yrotation Zrotation
									JOINT LeftForeArm
									{
										OFFSET 29.960503 0.000000 0.000000
										CHANNELS 3 Xrotation Yrotation Zrotation
										JOINT LeftHand
										{
											OFFSET 27.849251 0.000000 0.000000
											CHANNELS 3 Xrotation Yrotation Zrotation
											End Site
											{
												OFFSET 0 0 0
											}
										}
									}
								}
							}
						}
						JOINT RightShoulder_virtual
						{
							OFFSET 0.000000 0.000000 0.000000
							CHANNELS 3 Xrotation Yrotation Zrotation
							JOINT RightShoulder
							{
								OFFSET -15.263000 10.923401 -0.547700
								CHANNELS 3 Xrotation Yrotation Zrotation
								JOINT RightArm
								{
									OFFSET -25.438599 -2.830597 -13.032500
									CHANNELS 3 Xrotation Yrotation Zrotation
									JOINT RightForeArm
									{
										OFFSET -29.960503 0.000000 0.000000
										CHANNELS 3 Xrotation Yrotation Zrotation
										JOINT RightHand
										{
											OFFSET -27.849251 0.000000 0.000000
											CHANNELS 3 Xrotation Yrotation Zrotation
											End Site
											{
												OFFSET 0 0 0
											}
										}
									}
								}
							}
						}
					}
				}
			}
		}
	}
}
MOTION
Frames: 9
Frame Time: 0.03333333
9.152584 94.587883 0.138830 0.000000 0.000000 0.000000 -0.868782 -19.362886 -1.240007 -9.428496 7.985172 -2.809996 21.828800 6.505663 3.617904 -11.491005 19.819520 -0.800159 0.000000 0.000000 0.000000 -1.259130 -18.389892 -1.805763 -13.438066 -7.092772 -13.670373 18.214561 2.938205 2.359490 -15.696907 -4.590407 10.605450 0.000000 0.000000 0.000000 -1.163995 -18.821039 -1.069927 -0.334579 -0.367848 -1.697731 5.446447 1.477214 -1.960155 0.358054 0.485997 -0.228207 0.000000 0.000000 0.000000 0.007639 0.755741 -0.479591 -0.227076 -0.039823 1.325399 0.000000 0.000000 0.000000 -0.184370 0.776712 -0.808710 2.599854 -5.294660 -11.837906 -11.496309 -17.484203 -61.101254 0.392015 -19.938021 -0.095076 0.000000 0.000000 0.000000 0.184016 0.931974 -0.426000 2.603629 0.250612 15.521000 5.872146 -0.334935 63.909295 0.956965 17.611680 0.270479 0.000000 0.000000 0.000000 
9.584359 94.583611 0.350834 0.000000 0.000000 0.000000 -0.624259 -20.081402 -1.399805 -9.311231 8.044499 -3.310787 21.591572 6.368211 3.747619 -11.637787 20.461555 -0.389098 0.000000 0.000000 0.000000 -1.011765 -19.081971 -1.981946 -13.568581 -6.976406 -13.648622 17.994306 3.210227 2.285123 -16.148538 -4.555244 10.349103 0.000000 0.000000 0.000000 -0.918894 -19.572725 -1.246446 -0.329235 -0.347068 -1.679530 5.224225 1.009973 -2.098096 0.301097 0.369574 -0.262425 0.000000 0.000000 0.000000 -0.094791 0.646262 -0.506139 -0.254975 -0.002116 1.401436 0.000000 0.000000 0.000000 -0.264714 0.667699 -0.821988 2.580287 -5.480486 -11.756648 -12.143054 -18.839084 -61.755046 0.351820 -20.211606 -0.113547 0.000000 0.000000 0.000000 0.106037 0.818938 -0.459605 2.642593 -0.069358 15.845332 5.481615 0.161340 64.344050 0.968627 17.852323 0.252328 0.000000 0.000000 0.000000 
9.963600 94.579842 0.545090 0.000000 0.000000 0.000000 -0.350713 -20.714118 -1.559293 -9.293584 8.116125 -3.712002 21.409592 6.244504 3.877356 -11.752648 21.069528 -0.004563 0.000000 0.000000 0.000000 -0.742100 -19.698976 -2.159712 -13.613263 -6.896849 -13.541194 17.648982 3.381839 2.236238 -16.590605 -4.533039 10.011649 0.000000 0.000000 0.000000 -0.641069 -20.246622 -1.419695 -0.313841 -0.328433 -1.663047 5.011157 0.492529 -2.281344 0.258992 0.241751 -0.300832 0.000000 0.000000 0.000000 -0.184729 0.525136 -0.533979 -0.285546 0.032407 1.489436 0.000000 0.000000 0.000000 -0.332259 0.546566 -0.838716 2.533843 -5.730618 -11.600452 -12.610092 -20.328222 -62.382993 0.312574 -20.770557 -0.136506 0.000000 0.000000 0.000000 0.038964 0.693206 -0.496642 2.679193 -0.413960 16.233719 4.978195 0.726693 64.695934 0.969059 18.054635 0.255458 0.000000 0.000000 0.000000 
10.292803 94.575607 0.722002 0.000000 0.000000 0.000000 -0.033682 -21.254814 -1.708833 -9.377038 8.203628 -4.011562 21.262244 6.137430 4.002101 -11.830905 21.634179 0.340982 0.000000 0.000000 0.000000 -0.428871 -20.238047 -2.324754 -13.556336 -6.855363 -13.374772 17.116217 3.444132 2.211354 -17.041539 -4.510799 9.681128 0.000000 0.000000 0.000000 -0.316373 -20.828363 -1.574819 -0.297525 -0.312925 -1.662025 4.794905 -0.072214 -2.520913 0.230609 0.102505 -0.353182 0.000000 0.000000 0.000000 -0.265376 0.391644 -0.574269 -0.317055 0.062829 1.589996 0.000000 0.000000 0.000000 -0.391373 0.413523 -0.870669 2.464086 -6.030142 -11.362599 -12.920063 -21.917083 -62.982759 0.279929 -21.620436 -0.158118 0.000000 0.000000 0.000000 -0.018578 0.553674 -0.548010 2.716330 -0.792915 16.673142 4.422654 1.326615 64.958364 0.960856 18.246292 0.276281 0.000000 0.000000 0.000000 
10.571417 94.575592 0.890703 0.000000 0.000000 0.000000 0.339316 -21.691050 -1.838986 -9.553141 8.311552 -4.221290 21.108952 6.054339 4.123814 -11.824516 22.157448 0.623414 0.000000 0.000000 0.000000 -0.060128 -20.699390 -2.465941 -13.434273 -6.832056 -13.194377 16.430720 3.408402 2.201014 -17.342328 -4.444513 9.443232 0.000000 0.000000 0.000000 0.063635 -21.308425 -1.702766 -0.281185 -0.295911 -1.664941 4.568130 -0.673329 -2.826576 0.210831 -0.046910 -0.424008 0.000000 0.000000 0.000000 -0.340786 0.247689 -0.632973 -0.349587 0.087054 1.702724 0.000000 0.000000 0.000000 -0.446283 0.269627 -0.923442 2.380839 -6.367736 -11.045842 -13.089515 -23.561383 -63.548811 0.252368 -22.663889 -0.177607 0.000000 0.000000 0.000000 -0.072839 0.401671 -0.620142 2.760878 -1.210161 17.148424 3.880851 1.926117 65.144377 0.950408 18.445974 0.306163 0.000000 0.000000 0.000000 
10.804073 94.574341 1.050613 0.000000 0.000000 0.000000 0.771199 -22.038565 -1.945770 -9.803942 8.423070 -4.363056 20.938981 5.989548 4.250346 -11.752858 22.625119 0.821901 0.000000 0.000000 0.000000 0.372569 -21.074182 -2.575616 -13.324832 -6.803212 -13.023225 15.711267 3.285460 2.185004 -17.372996 -4.321313 9.320305 0.000000 0.000000 0.000000 0.501526 -21.681102 -1.802046 -0.266826 -0.291848 -1.684073 4.329882 -1.292471 -3.201860 0.198602 -0.202163 -0.511412 0.000000 0.000000 0.000000 -0.415847 0.097014 -0.709417 -0.382188 0.105142 1.824934 0.000000 0.000000 0.000000 -0.495690 0.118928 -0.997150 2.292584 -6.731475 -10.659940 -13.124057 -25.212919 -64.069155 0.228738 -23.768771 -0.196256 0.000000 0.000000 0.000000 -0.123064 0.240892 -0.712976 2.812781 -1.653657 17.641964 3.416600 2.505928 65.274663 0.946543 18.691861 0.332749 0.000000 0.000000 0.000000 
10.988239 94.565842 1.205114 0.000000 0.000000 0.000000 1.266294 -22.307813 -2.029639 -10.109213 8.488899 -4.456610 20.769530 5.906545 4.400087 -11.694396 23.001415 0.907415 0.000000 0.000000 0.000000 0.867188 -21.352116 -2.657358 -13.251969 -6.739592 -12.838744 15.039619 3.063500 2.132842 -17.213658 -4.183452 9.234777 0.000000 0.000000 0.000000 0.994097 -21.947327 -1.880327 -0.256700 -0.299986 -1.698349 4.094201 -1.898502 -3.642539 0.193807 -0.353800 -0.607938 0.000000 0.000000 0.000000 -0.489732 -0.051407 -0.794927 -0.414019 0.116198 1.952328 0.000000 0.000000 0.000000 -0.536076 -0.030983 -1.080618 2.209191 -7.104992 -10.222059 -13.044476 -26.815934 -64.505017 0.210070 -24.829071 -0.210225 0.000000 0.000000 0.000000 -0.169618 0.081061 -0.816758 2.868920 -2.105538 18.123094 3.061206 3.057496 65.379793 0.950560 18.985552 0.346974 0.000000 0.000000 0.000000 
11.130181 94.551163 1.345482 0.000000 0.000000 0.000000 1.815305 -22.513144 -2.102804 -10.468140 8.495918 -4.495065 20.637551 5.789567 4.571009 -11.702181 23.269392 0.873543 0.000000 0.000000 0.000000 1.413423 -21.543262 -2.726370 -13.167093 -6.639012 -12.595215 14.408496 2.725003 2.032224 -17.081579 -4.081258 9.117703 0.000000 0.000000 0.000000 1.532039 -22.114964 -1.955024 -0.246591 -0.313721 -1.711979 3.882820 -2.459312 -4.140075 0.195720 -0.491293 -0.702427 0.000000 0.000000 0.000000 -0.560434 -0.185873 -0.878695 -0.444613 0.121384 2.078268 0.000000 0.000000 0.000000 -0.563736 -0.169463 -1.162700 2.134067 -7.477665 -9.760158 -12.870639 -28.285296 -64.820708 0.192984 -25.815393 -0.220087 0.000000 0.000000 0.000000 -0.208274 -0.066039 -0.921316 2.920355 -2.541411 18.559630 2.837983 3.581202 65.475921 0.966738 19.305608 0.341344 0.000000 0.000000 0.000000 
11.237443 94.530945 1.459545 0.000000 0.000000 0.000000 2.390205 -22.669680 -2.179282 -10.895694 8.488624 -4.455728 20.578428 5.660314 4.737967 -11.789855 23.444810 0.753932 0.000000 0.000000 0.000000 1.985428 -21.676580 -2.799804 -13.045968 -6.531793 -12.264945 13.801895 2.265276 1.898695 -17.194866 -4.042164 8.973675 0.000000 0.000000 0.000000 2.093038 -22.214642 -2.044996 -0.239663 -0.329523 -1.724324 3.723422 -2.936441 -4.678510 0.206328 -0.601100 -0.787828 0.000000 0.000000 0.000000 -0.620472 -0.294376 -0.952717 -0.472646 0.121581 2.195360 0.000000 0.000000 0.000000 -0.573286 -0.282080 -1.233869 2.074828 -7.826508 -9.302570 -12.642699 -29.528854 -64.992706 0.176891 -26.735896 -0.218542 0.000000 0.000000 0.000000 -0.236990 -0.187594 -1.015582 2.961391 -2.936354 18.912401 2.761619 4.068558 65.564366 0.987794 19.623719 0.320361 0.000000 0.000000 0.000000 
